<?xml version="1.0" encoding="UTF-8"?>
<svg id="Camada_1" xmlns="http://www.w3.org/2000/svg" version="1.1" xmlns:xlink="http://www.w3.org/1999/xlink" viewBox="0 0 80 80">
  <!-- Generator: Adobe Illustrator 30.2.1, SVG Export Plug-In . SVG Version: 2.1.1 Build 1)  -->
  <defs>
    <style>
      .st0 {
        fill: url(#Gradiente_sem_nome_7);
      }
    </style>
    <linearGradient id="Gradiente_sem_nome_7" data-name="Gradiente sem nome 7" x1="40.51" y1="5.85" x2="40.51" y2="69.45" gradientUnits="userSpaceOnUse">
      <stop offset="0" stop-color="#093e28"/>
      <stop offset=".15" stop-color="#2b4d27"/>
      <stop offset=".44" stop-color="#656826"/>
      <stop offset=".69" stop-color="#8f7b26"/>
      <stop offset=".88" stop-color="#a98726"/>
      <stop offset="1" stop-color="#b38c26"/>
    </linearGradient>
  </defs>
  <path class="st0" d="M65.13,15.3s-.1-.04-.15,0c-.25.22-.5.44-.77.68-1.06.94-2.22,2.04-3.44,3.27-1.24,1.22-2.5,2.61-3.81,4.09-.63.76-1.31,1.51-1.95,2.33-.32.4-.65.81-.98,1.23-.32.42-.64.85-.96,1.27-.33.42-.64.87-.95,1.31-.32.44-.63.89-.96,1.34-.3.46-.61.92-.92,1.39l-.47.7-.44.72c-.3.48-.59.96-.89,1.44-.29.48-.56.99-.85,1.47-.28.5-.58.98-.84,1.49l-.79,1.52-.4.76-.37.77c-.25.51-.5,1.03-.74,1.54-.48,1.03-.92,2.08-1.38,3.1-.42,1.05-.83,2.09-1.24,3.11-.37,1.04-.74,2.07-1.1,3.09-.34,1.02-.63,2.04-.96,3.03-.32.99-.55,1.98-.83,2.93-.13.48-.28.95-.39,1.42-.11.47-.22.93-.33,1.39-.21.91-.46,1.79-.62,2.64-.34,1.71-.71,3.27-.93,4.68-.24,1.4-.51,2.63-.63,3.65-.14,1.02-.29,1.82-.37,2.37v.02c-.03.13-.21.12-.22,0v-.02c-.04-.55-.12-1.36-.18-2.4-.09-1.04-.09-2.29-.09-3.74-.03-1.45.09-3.08.19-4.87.01-.22.03-.45.04-.68.03-.23.05-.46.08-.69.05-.46.11-.93.16-1.41.11-.96.23-1.95.42-2.96.09-.51.18-1.02.27-1.54.1-.52.18-1.05.31-1.57.24-1.05.49-2.13.77-3.22.31-1.08.63-2.18.97-3.29.38-1.1.76-2.21,1.18-3.32.22-.55.45-1.1.67-1.65.23-.55.44-1.11.71-1.65.26-.54.51-1.09.77-1.63l.39-.82.42-.8.85-1.59c.28-.53.6-1.04.9-1.56.31-.52.6-1.04.93-1.54.33-.5.66-1,.98-1.49.63-1,1.37-1.93,2.05-2.87.72-.91,1.41-1.83,2.16-2.67.37-.43.74-.85,1.1-1.26.37-.42.75-.81,1.13-1.2.74-.79,1.51-1.53,2.25-2.24,1.52-1.4,2.99-2.67,4.43-3.75.35-.28.71-.54,1.06-.78.35-.25.69-.5,1.02-.73.68-.45,1.32-.89,1.94-1.26.21-.13.41-.26.61-.38.06-.04.07-.13.02-.18-6.26-5.48-14.46-8.8-23.43-8.8-4.05,0-7.95.68-11.57,1.92-.07.03-.1.12-.05.18.29.33.58.68.88,1.06.7.87,1.41,1.85,2.12,2.92.7,1.07,1.39,2.24,2.04,3.48.65,1.24,1.26,2.56,1.8,3.93.27.69.55,1.37.77,2.08.25.7.46,1.42.68,2.14.41,1.44.76,2.89,1.03,4.34.27,1.45.46,2.88.59,4.27.12,1.39.18,2.74.17,4.02,0,.32,0,.63,0,.94-.01.31-.03.61-.04.91-.04.6-.05,1.18-.11,1.73-.12,1.11-.21,2.12-.38,3.01-.16.89-.28,1.66-.45,2.29-.15.63-.29,1.12-.38,1.45v.02c-.04.11-.2.1-.22-.01v-.02c-.04-.34-.12-.85-.19-1.48-.06-.63-.18-1.4-.28-2.28-.08-.87-.25-1.86-.37-2.92-.07-.53-.16-1.08-.24-1.65-.04-.28-.08-.57-.12-.87-.05-.29-.1-.59-.15-.89-.18-1.21-.42-2.47-.67-3.76-.13-.65-.27-1.3-.41-1.97-.15-.66-.3-1.33-.46-2-.34-1.34-.67-2.7-1.07-4.04-.19-.67-.38-1.35-.6-2.01-.11-.33-.21-.66-.31-1-.11-.33-.22-.66-.33-.98-.11-.33-.22-.65-.34-.97-.11-.32-.23-.64-.34-.96-.24-.63-.48-1.26-.71-1.87-.97-2.45-1.97-4.71-2.91-6.63-.28-.57-.55-1.12-.81-1.63-.03-.05-.09-.07-.14-.05C14,13.45,4.91,26.18,4.91,41.03c0,5.98,1.48,11.62,4.08,16.57,2.76,5.24,10.72,2.43,9.62-3.38-1.68-8.91-4.85-17.87-10.68-23.6,0,0,15.9,13.91,18.25,38.18.32,3.29,2.65,6.04,5.86,6.83.04.01.09.02.13.03,3.82.92,7.71-1.18,9.09-4.85,5.91-15.72,24.63-26.82,30.24-29.85.12-.07.23.11.12.19-5.95,4.24-10.64,9.23-14.3,14.2-5.21,7.07,5.13,15.09,10.71,8.3,5.06-6.15,8.09-14.02,8.09-22.6,0-10.11-4.22-19.24-10.99-25.73ZM31.71,53.67c-.04.43-.07.84-.11,1.23,0,0,0,0,0,0-.06.39-.12.76-.18,1.11-.12.7-.24,1.3-.35,1.79-.1.5-.21.88-.27,1.15v.02c-.03.11-.19.11-.22,0v-.02c-.07-.26-.18-.65-.29-1.14-.12-.49-.24-1.08-.37-1.76-.06-.34-.13-.7-.2-1.08-.08-.38-.17-.77-.26-1.18-.17-.82-.35-1.71-.51-2.65-.21-.93-.43-1.91-.62-2.92-.17-1.02-.49-2.03-.69-3.08-.06-.26-.11-.52-.17-.79-.06-.26-.14-.52-.2-.78-.13-.52-.27-1.05-.41-1.57-.06-.26-.12-.53-.19-.79l-.23-.77c-.16-.51-.29-1.04-.44-1.55-.32-1.01-.63-2.01-.96-2.98-.35-.95-.65-1.89-1.01-2.75-.32-.88-.68-1.69-.99-2.46-.15-.39-.34-.73-.49-1.08-.08-.17-.15-.34-.22-.51-.08-.16-.16-.32-.23-.47-.15-.31-.29-.59-.42-.86-.14-.26-.26-.51-.37-.73-.24-.43-.41-.79-.56-1.02v-.02c-.07-.1.04-.21.14-.15,0,0,0,0,.01,0,.24.14.58.36.99.67.2.16.42.34.67.53.24.2.48.43.74.67.27.24.53.52.8.81.27.3.56.61.84.95.28.34.55.71.85,1.09.3.37.54.8.83,1.21.58.84,1.07,1.78,1.59,2.75.27.48.47,1.01.7,1.52.22.52.47,1.04.66,1.59.18.55.39,1.09.56,1.65l.27.84c.08.28.15.56.22.85.13.57.27,1.14.4,1.7.06.28.14.56.19.85.04.29.09.57.13.85.09.57.17,1.13.24,1.69.04.28.07.55.11.83.03.28.03.55.05.82.06,1.09.1,2.14.12,3.13-.04,1-.09,1.94-.16,2.8Z"/>
</svg>