<?xml version="1.0" encoding="UTF-8"?>
<svg id="Camada_1" xmlns="http://www.w3.org/2000/svg" version="1.1" xmlns:xlink="http://www.w3.org/1999/xlink" viewBox="0 0 1080 622">
  <!-- Generator: Adobe Illustrator 30.1.0, SVG Export Plug-In . SVG Version: 2.1.1 Build 136)  -->
  <defs>
    <style>
      .st0 {
        fill: #093e28;
        font-family: Legitima, Legitima;
        font-size: 206.59px;
        letter-spacing: .06em;
      }

      .st1 {
        fill: url(#Gradiente_sem_nome_7);
      }

      .st2 {
        fill: #b38c26;
        font-family: Lufga-Bold, 'Lufga Bold';
        font-size: 59.24px;
        font-weight: 700;
        letter-spacing: .16em;
      }
    </style>
    <linearGradient id="Gradiente_sem_nome_7" data-name="Gradiente sem nome 7" x1="540" y1="20.12" x2="540" y2="318.33" gradientUnits="userSpaceOnUse">
      <stop offset="0" stop-color="#093e28"/>
      <stop offset=".15" stop-color="#2b4d27"/>
      <stop offset=".44" stop-color="#656826"/>
      <stop offset=".69" stop-color="#8f7b26"/>
      <stop offset=".88" stop-color="#a98726"/>
      <stop offset="1" stop-color="#b38c26"/>
    </linearGradient>
  </defs>
  <text class="st0" transform="translate(1.01 514.09)"><tspan x="0" y="0">TERRAVIK</tspan></text>
  <text class="st2" transform="translate(133.13 590.99)"><tspan x="0" y="0">FERTILIZANTES PREMIUM</tspan></text>
  <path class="st1" d="M655.42,64.42c-.19-.18-.49-.19-.69-.02-1.16,1.02-2.36,2.08-3.59,3.19-4.97,4.42-10.41,9.56-16.14,15.33-5.79,5.71-11.7,12.23-17.85,19.16-2.95,3.58-6.16,7.08-9.13,10.94-1.51,1.9-3.04,3.81-4.59,5.75-1.49,1.97-3,3.96-4.52,5.97-1.56,1.98-2.99,4.08-4.47,6.16-1.48,2.08-2.98,4.17-4.48,6.28-1.42,2.16-2.86,4.33-4.3,6.51l-2.19,3.26-2.08,3.35c-1.39,2.24-2.78,4.49-4.18,6.75-1.38,2.27-2.63,4.62-3.99,6.91-1.31,2.32-2.73,4.59-3.95,6.97l-3.72,7.12-1.9,3.54-1.75,3.62c-1.16,2.41-2.33,4.82-3.49,7.22-2.26,4.83-4.32,9.74-6.49,14.56-1.96,4.91-3.91,9.78-5.83,14.59-1.74,4.89-3.47,9.72-5.16,14.47-1.6,4.79-2.97,9.56-4.51,14.19-1.52,4.63-2.57,9.29-3.9,13.75-.6,2.25-1.33,4.43-1.81,6.65-.52,2.2-1.04,4.37-1.54,6.51-.99,4.27-2.17,8.38-2.9,12.39-1.61,8-3.33,15.34-4.35,21.93-1.12,6.58-2.38,12.32-2.97,17.1-.66,4.77-1.36,8.52-1.75,11.09l-.02.09c-.1.6-.97.56-1.03-.04v-.08c-.19-2.59-.57-6.4-.84-11.25-.41-4.86-.42-10.76-.44-17.56-.16-6.81.4-14.44.9-22.82.07-1.05.13-2.11.2-3.17.12-1.06.24-2.14.36-3.22.25-2.17.5-4.38.76-6.63.52-4.5,1.07-9.16,1.96-13.89.42-2.38.85-4.78,1.28-7.22.45-2.44.84-4.92,1.45-7.38,1.12-4.95,2.31-10,3.6-15.11,1.44-5.08,2.95-10.23,4.55-15.43,1.78-5.14,3.54-10.37,5.51-15.56,1.05-2.57,2.1-5.16,3.16-7.75,1.07-2.59,2.06-5.22,3.32-7.74,1.2-2.55,2.4-5.1,3.6-7.65l1.81-3.83,1.97-3.76,4.01-7.47c1.31-2.5,2.84-4.88,4.24-7.32,1.44-2.42,2.83-4.86,4.37-7.21,1.54-2.34,3.08-4.67,4.62-6.99,2.98-4.7,6.42-9.04,9.59-13.47,3.4-4.26,6.63-8.57,10.15-12.53,1.74-1.99,3.46-3.97,5.17-5.93,1.72-1.95,3.53-3.78,5.28-5.63,3.46-3.72,7.07-7.16,10.55-10.52,7.12-6.56,14.03-12.54,20.78-17.58,1.66-1.29,3.32-2.51,4.96-3.68,1.64-1.17,3.21-2.34,4.8-3.41,3.2-2.11,6.18-4.18,9.11-5.93.97-.61,1.93-1.2,2.88-1.77.3-.18.34-.6.08-.83-29.36-25.69-67.81-41.26-109.89-41.26-19,0-37.26,3.18-54.27,9.02-.35.12-.46.55-.22.82,1.35,1.56,2.73,3.2,4.12,4.95,3.3,4.08,6.61,8.69,9.93,13.7,3.27,5.04,6.52,10.5,9.55,16.33,3.03,5.83,5.91,11.99,8.44,18.42,1.26,3.21,2.57,6.44,3.63,9.77,1.16,3.3,2.18,6.65,3.18,10.01,1.92,6.75,3.56,13.57,4.82,20.35,1.28,6.78,2.15,13.51,2.75,20.03.54,6.53.85,12.85.8,18.84,0,1.5-.01,2.97-.02,4.42-.06,1.45-.13,2.88-.19,4.29-.18,2.81-.24,5.52-.51,8.12-.57,5.19-1,9.93-1.79,14.09-.74,4.17-1.32,7.78-2.11,10.73-.7,2.95-1.36,5.25-1.76,6.82l-.02.08c-.15.54-.93.49-1.01-.07v-.09c-.21-1.61-.57-3.97-.87-6.94-.27-2.97-.84-6.58-1.29-10.68-.4-4.1-1.16-8.71-1.75-13.7-.32-2.5-.75-5.08-1.14-7.76-.19-1.34-.37-2.69-.57-4.07-.23-1.37-.47-2.77-.71-4.18-.86-5.65-1.99-11.56-3.13-17.65-.62-3.03-1.26-6.11-1.9-9.23-.71-3.1-1.42-6.23-2.14-9.39-1.58-6.28-3.13-12.66-5.03-18.95-.89-3.16-1.79-6.32-2.83-9.42-.49-1.56-.98-3.12-1.47-4.67-.52-1.54-1.04-3.08-1.55-4.61-.5-1.54-1.04-3.05-1.6-4.56-.53-1.51-1.06-3.02-1.59-4.52-1.13-2.97-2.25-5.9-3.35-8.78-4.53-11.49-9.25-22.1-13.66-31.1-1.3-2.69-2.57-5.24-3.8-7.63-.12-.24-.4-.34-.65-.24-60.59,25.04-103.23,84.72-103.23,154.36,0,28.05,6.92,54.48,19.14,77.69,12.94,24.56,50.25,11.41,45.09-15.87-7.89-41.77-22.74-83.78-50.07-110.65,0,0,74.55,65.24,85.6,179.01,1.5,15.41,12.42,28.34,27.46,32.01.21.05.42.1.62.15,17.9,4.3,36.14-5.51,42.62-22.74,27.71-73.71,115.5-125.76,141.78-139.99.57-.31,1.07.5.54.88-27.9,19.86-49.89,43.29-67.04,66.58-24.44,33.17,24.05,70.73,50.22,38.91,23.71-28.83,37.94-65.74,37.94-105.97,0-47.43-19.78-90.23-51.53-120.63ZM498.74,244.33c-.18,2.01-.35,3.94-.51,5.78,0,.01,0,.02,0,.03-.28,1.83-.55,3.57-.85,5.19-.58,3.26-1.13,6.09-1.64,8.42-.49,2.32-.99,4.14-1.28,5.37l-.02.08c-.13.51-.86.52-1,.01l-.03-.11c-.31-1.24-.83-3.06-1.35-5.36-.54-2.3-1.13-5.08-1.75-8.26-.29-1.58-.6-3.27-.93-5.05-.39-1.76-.8-3.62-1.23-5.55-.81-3.86-1.62-8.02-2.38-12.42-.97-4.36-2-8.94-2.9-13.68-.78-4.76-2.28-9.52-3.22-14.46-.27-1.23-.53-2.46-.8-3.7-.29-1.23-.65-2.44-.95-3.67-.63-2.45-1.27-4.92-1.9-7.38-.3-1.23-.56-2.49-.9-3.71l-1.09-3.63c-.75-2.41-1.37-4.86-2.05-7.26-1.52-4.74-2.97-9.44-4.48-13.96-1.66-4.45-3.03-8.88-4.73-12.91-1.5-4.15-3.19-7.92-4.66-11.52-.71-1.81-1.58-3.43-2.28-5.07-.36-.82-.71-1.61-1.05-2.38-.37-.75-.73-1.49-1.08-2.2-.7-1.44-1.35-2.79-1.96-4.03-.64-1.24-1.23-2.38-1.76-3.41-1.11-2.02-1.94-3.72-2.61-4.77l-.05-.08c-.27-.46.25-.99.71-.71.02.01.04.03.06.04,1.12.67,2.71,1.68,4.65,3.13.96.73,1.99,1.57,3.12,2.49,1.13.92,2.23,2.02,3.48,3.16,1.27,1.13,2.49,2.43,3.76,3.81,1.27,1.39,2.64,2.84,3.95,4.44,1.3,1.6,2.59,3.32,3.97,5.09,1.42,1.75,2.55,3.73,3.91,5.69,2.7,3.93,5.02,8.33,7.44,12.92,1.28,2.26,2.19,4.71,3.29,7.14,1.04,2.44,2.21,4.88,3.08,7.44.87,2.56,1.81,5.12,2.62,7.73l1.26,3.92c.39,1.31.7,2.65,1.05,3.97.63,2.67,1.26,5.33,1.89,7.99.3,1.33.66,2.65.87,3.99.21,1.34.41,2.67.62,4,.43,2.65.8,5.29,1.13,7.9.17,1.3.34,2.6.51,3.88.12,1.29.16,2.58.24,3.85.29,5.1.49,10.02.55,14.68-.18,4.67-.44,9.07-.75,13.12Z"/>
</svg>